<svg width="20" height="20" viewBox="0 0 20 20" fill="none" xmlns="http://www.w3.org/2000/svg">
<path d="M19.75 10C19.75 15.3848 15.3848 19.75 10 19.75C4.61522 19.75 0.25 15.3848 0.25 10C0.25 4.61522 4.61522 0.25 10 0.25C15.3848 0.25 19.75 4.61522 19.75 10Z" fill="#EAEBF0" stroke="#313A49" stroke-width="0.5"/>
<path d="M12.5295 10.177C12.1646 9.75631 11.9329 9.08665 11.927 9.07093C11.7998 8.73342 11.6605 8.5893 11.3789 8.69376C11.0724 8.80743 11.0271 9.13458 11.121 9.43738C11.1236 9.44587 11.1326 9.48048 11.1494 9.53466L9.69757 7.57073C9.54536 7.36483 9.25848 7.30354 9.04219 7.44062C8.80134 7.59324 8.74427 7.9148 8.91074 8.13998L8.66349 7.80552C8.50593 7.5924 8.20544 7.53542 7.98831 7.68744C7.76377 7.84466 7.71416 8.15494 7.8761 8.37401L8.12983 8.71725C7.96337 8.49205 7.63914 8.45235 7.42264 8.63788C7.22822 8.80446 7.20269 9.09667 7.35488 9.30257L7.8236 9.93662C7.65715 9.71146 7.33301 9.6717 7.11646 9.85719C6.92199 10.0238 6.89644 10.316 7.04865 10.5219C7.29471 10.8547 9.08824 13.2809 9.35434 13.6409C9.59581 13.9675 9.92632 14.1894 10.2876 14.2978C10.6294 14.4004 10.7645 14.6675 10.8052 14.7109L10.8215 14.7329C10.9572 14.9163 11.2158 14.9551 11.3992 14.8195L13.2345 13.4628C13.4166 13.3282 13.4551 13.0714 13.3205 12.8893L13.076 12.5585L13.1401 11.5986C13.1648 11.229 13.056 10.8621 12.8301 10.5685C12.5861 10.2513 12.565 10.2178 12.5295 10.177Z" fill="#F4D44E"/>
<path d="M9.32371 7.89713C9.20564 7.73741 9.20015 7.5292 9.29285 7.36719C9.20644 7.36771 9.11963 7.39123 9.04195 7.44047L9.04166 7.44066C9.03337 7.44594 9.02533 7.45143 9.01748 7.45709L9.01646 7.45785C9.00874 7.46344 9.00126 7.46922 8.99396 7.47518L8.99394 7.4752C8.79439 7.63789 8.75583 7.93024 8.91031 8.13956L8.9105 8.13983L10.3162 10.0414C10.3926 10.1448 10.5394 10.1644 10.6403 10.0847C10.7462 10.001 10.7667 9.84835 10.6864 9.73979L9.32371 7.89713Z" fill="#E8C842"/>
<path d="M8.44378 8.34003L8.4094 8.29354L8.28928 8.13104C8.17131 7.97145 8.16573 7.76352 8.25813 7.60156C8.1644 7.60213 8.07038 7.62969 7.98827 7.68717C7.76594 7.84283 7.71524 8.14854 7.87151 8.36722L9.52539 10.6048C9.60557 10.7133 9.76192 10.7286 9.8617 10.6379C9.96296 10.5459 9.97768 10.3919 9.89571 10.2824C9.77784 10.1248 8.56157 8.49765 8.44378 8.34003ZM11.2348 14.4899L11.2185 14.4679C11.1777 14.4246 11.0427 14.1574 10.7008 14.0549C10.3396 13.9465 10.009 13.7246 9.76756 13.3979C9.50147 13.038 7.70789 10.6118 7.46187 10.279C7.34297 10.1181 7.33304 9.90479 7.42689 9.73961C7.31752 9.74094 7.2075 9.77895 7.11646 9.85692C6.92198 10.0235 6.89644 10.3157 7.04867 10.5216L9.35436 13.6406C9.59582 13.9672 9.92633 14.1891 10.2876 14.2975C10.6294 14.4001 10.7645 14.6672 10.8053 14.7106L10.8216 14.7326C10.9572 14.9161 11.2158 14.9548 11.3993 14.8192L11.6233 14.6536C11.4785 14.6734 11.3278 14.6157 11.2348 14.4899ZM8.73339 11.1671C8.81818 11.2817 8.98505 11.2942 9.08599 11.1935C9.12614 11.1534 9.15062 11.1003 9.15498 11.0438C9.15934 10.9872 9.14331 10.931 9.10978 10.8852L7.76811 9.05965C7.6492 8.89878 7.63926 8.68546 7.73313 8.52028C7.62373 8.52161 7.51367 8.55964 7.42261 8.63765C7.2282 8.80423 7.20267 9.09644 7.35488 9.30234L8.73339 11.1671Z" fill="#DBBC3B"/>
<path d="M11.1497 9.53432L11.4134 9.88717C11.4805 9.97697 11.6092 9.99213 11.6954 9.92033C11.733 9.88894 11.7589 9.84568 11.7687 9.79765C11.7785 9.74962 11.7717 9.69968 11.7494 9.65604C11.6398 9.43394 11.5842 9.35539 11.5346 9.19463C11.5328 9.18367 11.4285 8.89326 11.5494 8.66019C11.5427 8.6601 11.536 8.66018 11.5293 8.66041C11.515 8.66096 11.5002 8.66254 11.4864 8.66467C11.4711 8.66701 11.4555 8.67029 11.4393 8.67451C11.419 8.67982 11.3989 8.68614 11.3792 8.69346C11.0727 8.81674 11.0262 9.13031 11.1213 9.43707C11.1239 9.44553 11.1329 9.48014 11.1497 9.53432Z" fill="#E8C842"/>
<path d="M13.3205 9.59199C12.9556 9.17134 12.7239 8.50169 12.718 8.48597C12.5908 8.14846 12.4515 8.00434 12.1699 8.10879C11.8634 8.22247 11.8181 8.54962 11.912 8.85242C11.9146 8.86091 11.9236 8.89552 11.9404 8.9497L10.4886 6.98577C10.3364 6.77987 10.0495 6.71858 9.8332 6.85566C9.59236 7.00827 9.53529 7.32984 9.70176 7.55502L9.45451 7.22056C9.29695 7.00743 8.99646 6.95046 8.77932 7.10247C8.55479 7.2597 8.50518 7.56998 8.66712 7.78904L8.92085 8.13229C8.75438 7.90709 8.43018 7.86739 8.21365 8.05291C8.01924 8.2195 7.99371 8.51171 8.1459 8.71761L8.61462 9.35166C8.44817 9.1265 8.12402 9.08673 7.90748 9.27223C7.713 9.43879 7.68746 9.73104 7.83966 9.93694L10.1454 13.0559C10.3868 13.3825 10.7173 13.6044 11.0786 13.7128C11.4204 13.8154 11.5555 14.0825 11.5962 14.1259L11.6125 14.1479C11.7482 14.3314 12.0068 14.3701 12.1903 14.2345L14.0256 12.8778C14.2076 12.7432 14.2461 12.4865 14.1115 12.3044L13.867 11.9736L13.9311 11.0137C13.9558 10.6441 13.847 10.2771 13.6211 9.9835C13.3771 9.66637 13.356 9.63285 13.3205 9.59199Z" fill="#F4D44E"/>
<path d="M10.1155 7.31217C9.99746 7.15245 9.99197 6.94424 10.0847 6.78223C9.89875 6.78336 9.79394 6.88608 9.78572 6.89024C9.58617 7.05293 9.54761 7.34528 9.70208 7.5546L9.70228 7.55487L11.108 9.45644C11.1844 9.5598 11.3312 9.57943 11.4321 9.49976C11.538 9.41608 11.5584 9.26339 11.4782 9.15483L10.1155 7.31217ZM9.23536 7.75515L9.20099 7.70866L9.08087 7.54616C8.9629 7.38657 8.95731 7.17864 9.04971 7.01668C8.95598 7.01725 8.86196 7.04481 8.77985 7.10229C8.5575 7.25795 8.50682 7.56366 8.66309 7.78234L8.92139 8.1321L10.317 10.0199C10.3971 10.1284 10.5535 10.1438 10.6533 10.0531C10.7021 10.0087 10.7327 9.94761 10.739 9.88187C10.7453 9.81613 10.7268 9.7504 10.6873 9.69751C10.5694 9.53993 9.35317 7.91277 9.23536 7.75515ZM12.0264 13.905L12.0101 13.883C11.9693 13.8397 11.8343 13.5725 11.4924 13.47C11.1312 13.3616 10.8006 13.1397 10.5592 12.813L8.25347 9.69408C8.13457 9.53323 8.12465 9.31991 8.21849 9.15473C7.8222 9.15952 7.60083 9.61288 7.84025 9.93675L10.1459 13.0557C10.3874 13.3823 10.7179 13.6042 11.0792 13.7126C11.421 13.8152 11.5561 14.0823 11.5969 14.1257L11.6131 14.1477C11.7488 14.3312 12.0074 14.3699 12.1909 14.2343L12.4149 14.0687C12.2701 14.0885 12.1193 14.0308 12.0264 13.905ZM9.52495 10.5822C9.60974 10.6968 9.77662 10.7093 9.87756 10.6086C9.91771 10.5685 9.94218 10.5154 9.94654 10.4589C9.95091 10.4023 9.93487 10.3461 9.90135 10.3003L8.55967 8.47475C8.44076 8.31388 8.43082 8.10056 8.52469 7.93538C8.12814 7.94017 7.9072 8.39381 8.14644 8.71742C8.14838 8.72 8.87159 9.69833 9.52495 10.5822Z" fill="#E8C842"/>
<path d="M8.23326 6.31435L7.71363 5.53386C7.6245 5.40001 7.68366 5.21807 7.83443 5.16221C7.97589 5.10979 8.12933 5.20268 8.14847 5.35233L8.2698 6.3007C8.27248 6.32172 8.245 6.33199 8.23326 6.31435ZM7.49374 6.80672L6.97434 6.0266C6.8851 5.89257 6.69418 5.87693 6.58434 5.99466C6.48156 6.1048 6.50803 6.28193 6.63854 6.35723L7.4671 6.8352C7.4854 6.84575 7.50548 6.82436 7.49374 6.80672ZM7.02895 7.47029L6.11773 7.20358C5.96919 7.16011 5.81898 7.26665 5.81089 7.42122C5.80271 7.5779 5.94247 7.70144 6.09697 7.67404L7.02678 7.50921C7.04766 7.50552 7.04926 7.47622 7.02895 7.47029ZM11.138 6.31435L11.6604 5.52978C11.7481 5.39804 11.6899 5.21891 11.5415 5.16393C11.3977 5.11065 11.2417 5.20508 11.2222 5.35721L11.1015 6.30072C11.0988 6.32172 11.1263 6.33199 11.138 6.31435ZM11.8776 6.80672L12.4103 6.00656C12.4927 5.88277 12.6691 5.86831 12.7706 5.97707C12.8817 6.09621 12.8531 6.28781 12.712 6.36926L11.9043 6.83518C11.8859 6.84575 11.8658 6.82436 11.8776 6.80672ZM12.3424 7.47029L13.2344 7.20923C13.3927 7.16288 13.5528 7.27647 13.5614 7.44122C13.5691 7.58769 13.4384 7.70314 13.294 7.67755L12.3445 7.50923C12.3237 7.50552 12.322 7.47622 12.3424 7.47029Z" fill="#EAE9E8"/>
<path d="M11.9404 8.94938L12.2041 9.30223C12.2712 9.39203 12.3999 9.40719 12.4861 9.33539C12.5237 9.304 12.5496 9.26074 12.5594 9.21271C12.5692 9.16468 12.5624 9.11474 12.5401 9.07109L12.4077 8.8123C12.3744 8.74727 12.3468 8.67948 12.3253 8.60969L12.3252 8.60943C12.2671 8.42186 12.2624 8.22498 12.3401 8.07525C12.3316 8.07508 12.3188 8.07525 12.3041 8.07648C12.3024 8.07662 12.3007 8.07676 12.2989 8.07693C12.294 8.0774 12.2891 8.07801 12.284 8.07871C12.274 8.08007 12.2641 8.0818 12.2542 8.08389C12.2498 8.08478 12.2455 8.08573 12.2411 8.08674C12.2374 8.0876 12.2337 8.08859 12.23 8.08955C12.2261 8.09055 12.2223 8.09154 12.2183 8.09266C12.2136 8.09402 12.2087 8.09553 12.2039 8.09703C12.2008 8.09799 12.1977 8.09887 12.1946 8.09988C11.8708 8.20623 11.8132 8.5333 11.912 8.85211C11.9146 8.86059 11.9236 8.89518 11.9404 8.94938Z" fill="#E8C842"/>
<path d="M8.41605 6.28216L8.29472 5.33381C8.26349 5.08943 8.01299 4.93877 7.78297 5.02402C7.54305 5.11295 7.44857 5.4025 7.59061 5.61585L8.11026 6.3963C8.20806 6.54322 8.43837 6.45763 8.41605 6.28216ZM7.83631 5.45225C7.81262 5.41664 7.8186 5.38205 7.82426 5.36461C7.85623 5.2661 7.98993 5.27729 8.00194 5.37125L8.05417 5.77946L7.83631 5.45225ZM6.37782 6.21097C6.38617 6.26784 6.40731 6.32207 6.43967 6.36958C6.47202 6.41709 6.51474 6.45663 6.5646 6.48523C7.43102 6.97594 7.39719 6.98578 7.47709 6.98578C7.60854 6.98578 7.69166 6.83801 7.61639 6.72508L7.09701 5.94495C6.86185 5.59182 6.3178 5.80925 6.37782 6.21097ZM6.7121 6.22956C6.6806 6.21138 6.67204 6.18279 6.66974 6.16736C6.65501 6.0689 6.79388 6.02226 6.85134 6.10857L7.06896 6.43539L6.7121 6.22956ZM5.79508 7.72741C5.83914 7.76655 5.89151 7.79518 5.94824 7.81113C6.00497 7.82709 6.06458 7.82996 6.12258 7.81952L7.05238 7.65468C7.22636 7.62388 7.23978 7.3784 7.07021 7.32877L6.15903 7.06209C5.7644 6.94678 5.48443 7.45294 5.79508 7.72741ZM6.07614 7.3454L6.4647 7.45911L6.07108 7.52889C6.01012 7.53971 5.95491 7.49108 5.95815 7.42909C5.96119 7.37014 6.01836 7.32852 6.07614 7.3454ZM11.5926 5.02568C11.3598 4.93949 11.1072 5.09205 11.0756 5.33864L10.9549 6.2821C10.9325 6.45742 11.1628 6.54338 11.2607 6.39628L11.7831 5.61172C11.9235 5.40084 11.8306 5.11389 11.5926 5.02568ZM11.5374 5.44817L11.3168 5.77944L11.3684 5.37614C11.3808 5.27975 11.5173 5.26631 11.549 5.36387C11.5545 5.38065 11.5602 5.41393 11.5374 5.44817ZM11.9778 6.96318L12.7855 6.49724C13.0088 6.36843 13.0544 6.0653 12.8783 5.87655C12.712 5.69827 12.4227 5.72165 12.2873 5.92493L11.7546 6.72512C11.7335 6.75655 11.7237 6.79421 11.7269 6.83192C11.73 6.86963 11.7459 6.90516 11.7718 6.93268C11.7976 6.96035 11.8321 6.97844 11.8695 6.98398C11.9069 6.98953 11.9451 6.98219 11.9778 6.96318ZM12.533 6.08851C12.5621 6.04472 12.6253 6.03808 12.6625 6.0779C12.709 6.1278 12.6969 6.20761 12.638 6.24156L12.302 6.43539L12.533 6.08851ZM12.3186 7.6547L13.2681 7.82304C13.3238 7.83306 13.381 7.83031 13.4354 7.815C13.4898 7.79969 13.5401 7.77222 13.5823 7.73466C13.8858 7.46649 13.6019 6.94799 13.1927 7.06772L12.3008 7.32879C12.2644 7.3393 12.2327 7.36185 12.2108 7.39274C12.189 7.42362 12.1783 7.46102 12.1805 7.4988C12.1824 7.53659 12.1971 7.5726 12.2222 7.60093C12.2473 7.62925 12.2813 7.64821 12.3186 7.6547ZM13.2756 7.351C13.3194 7.33821 13.3526 7.3553 13.3685 7.36657C13.4558 7.42856 13.4068 7.5477 13.3197 7.53239L12.9063 7.45911L13.2756 7.351ZM13.0731 13.7299C13.1046 13.7299 13.1353 13.7198 13.1607 13.701L14.1135 12.9966C14.3613 12.8134 14.4137 12.4647 14.2304 12.2168L14.0181 11.9295L14.0786 11.0236C14.0982 10.73 14.0403 10.4358 13.9112 10.1728C13.8939 10.1379 13.8634 10.1113 13.8264 10.0988C13.7895 10.0863 13.7491 10.0889 13.7141 10.1061C13.6791 10.1233 13.6523 10.1536 13.6396 10.1905C13.6269 10.2273 13.6293 10.2677 13.6463 10.3028C13.7526 10.5194 13.8002 10.7619 13.784 11.0039C13.7301 11.9905 13.6916 11.9844 13.7485 12.0614L13.993 12.3923C14.0792 12.5088 14.0546 12.6731 13.938 12.7592L12.9852 13.4636C12.9602 13.4821 12.9417 13.508 12.9322 13.5376C12.9228 13.5672 12.923 13.5991 12.9327 13.6286C12.9425 13.6581 12.9613 13.6838 12.9865 13.702C13.0117 13.7202 13.042 13.7299 13.0731 13.7299ZM12.2214 8.24734C12.3569 8.19707 12.4468 8.18427 12.5797 8.53717C12.7249 8.92743 12.9398 9.37825 13.2092 9.6888C13.2317 9.7148 13.2322 9.71769 13.2667 9.7624C13.2904 9.79354 13.3255 9.814 13.3643 9.81927C13.4031 9.82455 13.4424 9.81421 13.4736 9.79052C13.5047 9.76681 13.5252 9.73171 13.5304 9.69292C13.5357 9.65414 13.5254 9.61485 13.5017 9.58368C13.4566 9.50649 13.1375 9.21983 12.8587 8.44053C12.7157 8.06115 12.5152 7.82355 12.1188 7.97056C11.9101 8.04794 11.7777 8.21103 11.7351 8.42357L10.6074 6.89816C10.302 6.48498 9.66909 6.57828 9.49797 7.0478C9.11873 6.68892 8.48902 6.90236 8.42903 7.42973C7.89215 7.27368 7.44182 7.83878 7.69149 8.32425C7.19384 8.3517 6.91888 8.92696 7.22441 9.34057L7.37476 9.54413C6.88031 9.57909 6.61626 10.1517 6.91771 10.5598L7.29472 11.0702C7.31828 11.1008 7.35292 11.121 7.3912 11.1264C7.42948 11.1318 7.46834 11.1219 7.49943 11.0989C7.53053 11.076 7.55137 11.0417 7.55748 11.0036C7.5636 10.9654 7.55449 10.9264 7.53213 10.8948L7.15511 10.3844C6.97796 10.1446 7.15929 9.81224 7.45152 9.83908C7.53902 9.84706 7.61799 9.88738 7.67524 9.953L7.67561 9.95363C7.70782 10.0116 7.57354 9.82499 10.0269 13.1437C10.2802 13.4864 10.6293 13.7321 11.0364 13.8542C11.182 13.8979 11.3141 13.9923 11.4085 14.1199C11.4916 14.2324 11.5415 14.3155 11.6597 14.3853L11.2976 14.6527C11.2696 14.6735 11.2378 14.6886 11.2039 14.697C11.1701 14.7054 11.1349 14.707 11.1004 14.7017C10.9459 14.6785 10.9041 14.5513 10.8408 14.4811C10.7089 14.3025 10.5226 14.1699 10.3163 14.108C9.97085 14.0041 9.67459 13.7954 9.45959 13.5043L7.94133 11.4488C7.92982 11.4332 7.91535 11.4201 7.89875 11.4101C7.88214 11.4001 7.86374 11.3935 7.84457 11.3906C7.82541 11.3877 7.80587 11.3886 7.78706 11.3933C7.76825 11.398 7.75055 11.4063 7.73496 11.4178C7.71938 11.4293 7.70621 11.4438 7.69622 11.4604C7.68622 11.477 7.6796 11.4954 7.67672 11.5146C7.67384 11.5337 7.67476 11.5533 7.67943 11.5721C7.6841 11.5909 7.69243 11.6086 7.70395 11.6242L9.22217 13.6797C9.47535 14.0224 9.82436 14.2683 10.2314 14.3906C10.5249 14.4788 10.6385 14.7176 10.6889 14.7723C10.873 15.0215 11.2236 15.0743 11.473 14.8901L12.0709 14.4486C12.2522 14.407 12.3212 14.3087 12.6069 14.1103C12.6384 14.087 12.6593 14.0522 12.6651 14.0135C12.6709 13.9748 12.6611 13.9354 12.6379 13.9039C12.6146 13.8724 12.5798 13.8515 12.5411 13.8457C12.5024 13.8399 12.4629 13.8497 12.4315 13.8729C12.115 14.0964 12.0913 14.1512 11.9786 14.1656C11.8991 14.1756 11.822 14.1492 11.7672 14.0996C11.6834 14.0239 11.5395 13.697 11.1213 13.5715C10.7755 13.4677 10.4793 13.259 10.2643 12.9682C7.75557 9.5747 7.91504 9.8214 7.89377 9.69632C7.83553 9.34571 8.28501 9.15395 8.49614 9.43948L9.5669 10.8879C9.58062 10.9065 9.59852 10.9216 9.61916 10.932C9.63979 10.9424 9.66258 10.9478 9.68569 10.9478C9.80493 10.9478 9.87688 10.8107 9.80424 10.7125C8.14175 8.46357 8.23534 8.60574 8.20973 8.51894C8.18811 8.44629 8.1902 8.36662 8.21843 8.29429C8.2446 8.22818 8.2912 8.17216 8.35144 8.13439C8.41168 8.09662 8.4824 8.07907 8.55331 8.08431C8.61833 8.08882 8.67642 8.10908 8.72843 8.14675C8.80535 8.20246 8.72212 8.1189 10.3477 10.3107C10.3615 10.3293 10.3794 10.3444 10.4 10.3548C10.4206 10.3652 10.4434 10.3706 10.4665 10.3705C10.5858 10.3705 10.6577 10.2335 10.5851 10.1352L9.03971 8.0447C8.76289 7.67026 8.78173 7.69685 8.76904 7.67608C8.72696 7.6073 8.71104 7.52567 8.72417 7.44612C8.77292 7.14731 9.15551 7.06436 9.33602 7.30848L11.1286 9.73341C11.1424 9.752 11.1603 9.76711 11.1809 9.77751C11.2015 9.78791 11.2243 9.79331 11.2474 9.79327C11.3667 9.79327 11.4386 9.6562 11.366 9.55798C11.2078 9.34405 9.98602 7.69128 9.82057 7.46743C9.76174 7.38225 9.74321 7.29528 9.76018 7.20442C9.81481 6.91184 10.1908 6.83119 10.3701 7.07369L11.8219 9.03762C11.9201 9.17053 12.1306 9.0644 12.0816 8.90619C12.0613 8.8408 12.0581 8.82487 12.0531 8.80893C12.0206 8.70387 11.9366 8.35297 12.2214 8.24734ZM7.63783 9.4035L7.46187 9.16526C7.35375 9.01889 7.37365 8.81471 7.50717 8.70039C7.65014 8.57795 7.86034 8.59596 7.98065 8.73223C8.01645 8.79727 8.04575 8.82756 8.17774 9.00875C7.9311 9.0262 7.72369 9.18737 7.63783 9.4035ZM8.03497 8.02732C7.99908 8.0726 7.96964 8.12264 7.94749 8.17601C7.91974 8.1152 7.91079 8.04749 7.92176 7.98156C7.96555 7.71388 8.28265 7.61206 8.48339 7.78944C8.4665 7.79065 8.1553 7.87548 8.03497 8.02732Z" fill="black"/>
</svg>
