<svg width="20" height="20" viewBox="0 0 20 20" fill="none" xmlns="http://www.w3.org/2000/svg">
<path d="M19.75 10C19.75 15.3848 15.3848 19.75 10 19.75C4.61522 19.75 0.25 15.3848 0.25 10C0.25 4.61522 4.61522 0.25 10 0.25C15.3848 0.25 19.75 4.61522 19.75 10Z" fill="#EAEBF0" stroke="#313A49" stroke-width="0.5"/>
<path d="M5.2168 9.56543H8.26028V14.7828H5.2168V9.56543Z" fill="#0277BD"/>
<path d="M8.26088 14.9998H5.2174C5.09734 14.9998 5 14.9025 5 14.7825V9.56505C5 9.44499 5.09734 9.34766 5.2174 9.34766H8.26088C8.38094 9.34766 8.47828 9.44499 8.47828 9.56505V14.7825C8.47828 14.9025 8.38094 14.9998 8.26088 14.9998ZM5.43478 14.5651H8.04348V9.78243H5.43478V14.5651Z" fill="#01579B"/>
<path d="M8.26172 13.9135C8.64058 14.1908 9.09661 14.3428 9.56607 14.3482H13.5878C14.0071 14.3497 14.3481 14.011 14.3496 13.5918C14.35 13.4875 14.3288 13.3842 14.2875 13.2885C14.2462 13.1927 14.1857 13.1065 14.1096 13.0352C14.5247 12.9903 14.8249 12.6174 14.7801 12.2023C14.7606 12.0219 14.6769 11.8546 14.5444 11.7308C14.9596 11.6865 15.2602 11.3139 15.2158 10.8987C15.2024 10.7732 15.1578 10.6531 15.0861 10.5493C15.0144 10.4455 14.9178 10.3613 14.8052 10.3043C15.2132 10.0509 15.3385 9.51481 15.0851 9.10683C15.0073 8.98151 14.8989 8.87806 14.7701 8.80619C14.6412 8.73433 14.4962 8.69643 14.3487 8.69605H11.3052C11.544 8.06835 11.6905 7.4093 11.74 6.73952C11.74 5.9243 11.0334 5.21777 10.653 5.21777C10.4184 5.2212 10.1906 5.29713 10.0008 5.43517V6.95692L8.6965 9.78302L8.26172 10.0004V13.9135Z" fill="#ECEFF1"/>
<path d="M13.5865 14.5652H9.56472C9.03757 14.561 8.52595 14.3862 8.10645 14.067C8.08628 14.0467 8.07029 14.0227 8.0594 13.9963C8.0485 13.9699 8.04292 13.9416 8.04297 13.913V10C8.04297 9.91772 8.08942 9.8425 8.16297 9.80565L8.52949 9.62217L9.7821 6.90912V5.43478C9.78203 5.40216 9.7893 5.36994 9.80337 5.34051C9.81744 5.31109 9.83796 5.2852 9.8634 5.26478C10.0922 5.09665 10.3677 5.00409 10.6517 5C11.1547 5 11.956 5.79608 11.956 6.73913C11.9231 7.3324 11.806 7.91798 11.6082 8.47825H14.3473C14.9476 8.47825 15.4343 8.9649 15.4343 9.5652C15.435 9.83499 15.3341 10.0951 15.1516 10.2939C15.53 10.6748 15.5279 11.2904 15.147 11.6688C15.0738 11.7415 14.9895 11.8021 14.8973 11.8483C14.965 11.9832 15 12.1321 14.9995 12.283C14.9993 12.4635 14.9489 12.6403 14.8541 12.7939C14.7593 12.9474 14.6237 13.0716 14.4625 13.1526C14.5302 13.2875 14.5652 13.4365 14.5647 13.5874C14.5638 14.1272 14.1263 14.5645 13.5865 14.5652ZM8.47777 13.8135C8.80696 14.0105 9.18124 14.1196 9.56472 14.1304H13.5865C13.8865 14.1302 14.1297 13.887 14.1299 13.587C14.13 13.5131 14.1147 13.44 14.0852 13.3723C14.0556 13.3046 14.0124 13.2437 13.9582 13.1935C13.8708 13.1112 13.8665 12.9736 13.9488 12.8862C13.984 12.8487 14.0314 12.8249 14.0825 12.8191C14.3784 12.7879 14.5929 12.5227 14.5616 12.2268C14.548 12.0976 14.4881 11.9777 14.393 11.8891C14.3055 11.8069 14.3013 11.6693 14.3836 11.5818C14.4188 11.5443 14.4662 11.5206 14.5173 11.5148C14.8132 11.4836 15.0278 11.2185 14.9966 10.9226C14.9871 10.8325 14.9551 10.7463 14.9034 10.6719C14.8518 10.5975 14.7823 10.5374 14.7012 10.497C14.5945 10.4419 14.5527 10.3108 14.6078 10.2041C14.6259 10.1689 14.6532 10.1394 14.6869 10.1187C14.9926 9.9282 15.086 9.52597 14.8955 9.22028C14.8374 9.12705 14.7567 9.05001 14.6608 8.99629C14.565 8.94258 14.4572 8.91395 14.3473 8.91305H11.3038C11.1838 8.91299 11.0865 8.81561 11.0866 8.69555C11.0866 8.66914 11.0914 8.64295 11.1008 8.61827C11.3299 8.01516 11.4715 7.38236 11.5212 6.73913C11.5212 6.02695 10.8899 5.43478 10.6517 5.43478C10.4992 5.43724 10.3498 5.47774 10.2169 5.5526V6.9565C10.2169 6.98802 10.21 7.01916 10.1969 7.04781L8.89255 9.87391C8.87184 9.91859 8.83658 9.95492 8.79254 9.97695L8.47777 10.1343V13.8135Z" fill="#01579B"/>
<path d="M8.26088 14.9998H5.2174C5.09734 14.9998 5 14.9025 5 14.7825V9.56505C5 9.44499 5.09734 9.34766 5.2174 9.34766H8.26088C8.38094 9.34766 8.47828 9.44499 8.47828 9.56505V14.7825C8.47828 14.9025 8.38094 14.9998 8.26088 14.9998ZM5.43478 14.5651H8.04348V9.78243H5.43478V14.5651Z" fill="black"/>
<path d="M13.5864 14.5652H9.56464C9.03749 14.561 8.52589 14.3862 8.10637 14.067C8.02296 13.9806 8.02536 13.843 8.11171 13.7596C8.15224 13.7204 8.20639 13.6985 8.26274 13.6985C8.3191 13.6985 8.37324 13.7204 8.41377 13.7596C8.75174 13.9954 9.15259 14.1245 9.56464 14.1304H13.5864C13.8864 14.1302 14.1296 13.887 14.1299 13.587C14.1298 13.5131 14.1145 13.44 14.085 13.3723C14.0554 13.3046 14.0123 13.2437 13.9581 13.1935C13.8707 13.1112 13.8665 12.9736 13.9487 12.8862C13.9839 12.8487 14.0313 12.8249 14.0825 12.8191C14.3783 12.7879 14.5928 12.5227 14.5615 12.2268C14.5479 12.0976 14.488 11.9777 14.3929 11.8891C14.3054 11.8069 14.3012 11.6693 14.3835 11.5818C14.4187 11.5443 14.4661 11.5206 14.5172 11.5148C14.8131 11.4838 15.0279 11.2188 14.9969 10.9229C14.9875 10.8328 14.9555 10.7465 14.9039 10.6721C14.8522 10.5976 14.7827 10.5374 14.7016 10.4969C14.5949 10.4419 14.553 10.3108 14.6081 10.204C14.6262 10.1689 14.6536 10.1394 14.6872 10.1187C14.9929 9.92818 15.0863 9.52595 14.8958 9.22026C14.8377 9.12697 14.7569 9.04989 14.661 8.99617C14.5651 8.94246 14.4572 8.91386 14.3472 8.91303H11.3038C11.1837 8.91297 11.0864 8.81559 11.0865 8.69553C11.0865 8.66912 11.0913 8.64293 11.1007 8.61825C11.3296 8.01507 11.4712 7.38231 11.5212 6.73913C11.5212 6.02695 10.8899 5.43478 10.6516 5.43478C10.4991 5.43724 10.3497 5.47774 10.2168 5.5526V6.9565C10.2168 6.98802 10.21 7.01916 10.1968 7.04781L8.89247 9.87391C8.87176 9.91859 8.83651 9.95492 8.79246 9.97695L8.35769 10.1943C8.25024 10.248 8.11962 10.2044 8.06594 10.0969C8.01226 9.98948 8.05587 9.85889 8.16334 9.8052L8.52986 9.62172L9.78204 6.9091V5.43478C9.78202 5.40212 9.78935 5.36988 9.80351 5.34045C9.81766 5.31102 9.83826 5.28516 9.86378 5.26478C10.0925 5.09676 10.3679 5.0042 10.6516 5C11.1547 5 11.956 5.79608 11.956 6.73913C11.9232 7.33241 11.8061 7.91801 11.6081 8.47825H14.3473C14.9476 8.47825 15.4342 8.9649 15.4342 9.5652C15.4349 9.83498 15.334 10.0951 15.1516 10.2939C15.5301 10.6748 15.5281 11.2903 15.1473 11.6688C15.0741 11.7415 14.9899 11.8021 14.8977 11.8483C15.1366 12.3286 14.9422 12.9117 14.4629 13.1526C14.5303 13.2876 14.5652 13.4365 14.5647 13.5874C14.5637 14.1272 14.1262 14.5645 13.5864 14.5652Z" fill="black"/>
</svg>
