<svg width="20" height="20" viewBox="0 0 20 20" fill="none" xmlns="http://www.w3.org/2000/svg">
<path d="M19.75 10C19.75 15.3848 15.3848 19.75 10 19.75C4.61522 19.75 0.25 15.3848 0.25 10C0.25 4.61522 4.61522 0.25 10 0.25C15.3848 0.25 19.75 4.61522 19.75 10Z" fill="#EAEBF0" stroke="#313A49" stroke-width="0.5"/>
<path d="M15.4396 6.26207C15.0049 5.69097 14.3909 5.28255 13.6962 5.10243C13.0014 4.92231 12.2663 4.98094 11.6089 5.2689C11.0205 5.52282 10.4957 5.95092 10.0701 6.52043C9.64452 5.95092 9.11974 5.52282 8.53134 5.27029C7.87408 4.98218 7.13906 4.92333 6.44434 5.1032C5.74961 5.28306 5.1355 5.6912 4.70063 6.26207C4.24225 6.86269 4 7.61333 4 8.43259C4 9.61161 4.70313 10.9051 6.08968 12.2786C7.21952 13.3973 8.55467 14.3135 9.24975 14.76C9.49466 14.9167 9.77935 15 10.0701 15C10.3609 15 10.6456 14.9167 10.8905 14.76C11.585 14.3135 12.9207 13.3973 14.0506 12.2786C15.4371 10.9056 16.1402 9.61161 16.1402 8.43259C16.1402 7.61333 15.898 6.86269 15.4396 6.26207Z" fill="#3A0A0E"/>
<path d="M15.4454 8.43284C15.4454 9.41961 14.8117 10.5475 13.5616 11.7854C12.4781 12.8594 11.1871 13.744 10.5148 14.1746C10.3821 14.2594 10.2279 14.3044 10.0704 14.3044C9.91284 14.3044 9.7586 14.2594 9.62586 14.1746C8.95356 13.7429 7.6637 12.8583 6.57913 11.7854C5.32899 10.5475 4.69531 9.41961 4.69531 8.43284C4.69531 7.7661 4.88978 7.16214 5.25343 6.68264C5.58885 6.24414 6.0587 5.9276 6.59108 5.78143C6.80319 5.72406 7.02197 5.6951 7.24171 5.69531C8.08847 5.69531 9.06524 6.11869 9.77143 7.32272C9.80202 7.37499 9.84576 7.41834 9.8983 7.44847C9.95084 7.4786 10.0103 7.49446 10.0709 7.49446C10.1315 7.49446 10.191 7.4786 10.2435 7.44847C10.2961 7.41834 10.3398 7.37499 10.3704 7.32272C11.2677 5.7931 12.6015 5.52363 13.5507 5.78143C14.0831 5.9276 14.553 6.24414 14.8884 6.68264C15.2523 7.16214 15.4454 7.76721 15.4454 8.43284Z" fill="#F9595F"/>
</svg>
