<svg width="190" height="48" viewBox="0 0 190 48" fill="none" xmlns="http://www.w3.org/2000/svg">
<path d="M33.2576 35.4961L36.0726 36.8551C36.0635 36.9321 36.0588 37.0095 36.0586 37.0871C36.0577 37.2827 36.0871 37.4774 36.1456 37.6641L28.4676 43.2411L31.6796 36.0701C31.7384 36.076 31.7975 36.079 31.8566 36.0791C32.1168 36.0788 32.3745 36.0271 32.6147 35.9271C32.8549 35.827 33.0741 35.6806 33.2576 35.4961ZM21.3826 36.6841C21.5269 36.4723 21.6288 36.2346 21.6826 35.9841L30.0826 34.9691C30.1885 35.1856 30.3328 35.3812 30.5086 35.5461L27.0736 43.2161C27.014 43.2078 26.9538 43.2038 26.8936 43.2041C26.69 43.2033 26.4875 43.2347 26.2936 43.2971L21.3826 36.6841ZM3.87461 37.6671C3.93166 37.48 3.96097 37.2856 3.96161 37.0901C3.9607 36.9785 3.951 36.8671 3.93261 36.7571L7.46261 34.8251L11.4486 43.1701L3.87461 37.6671ZM33.8226 34.2751C33.8287 34.2183 33.8317 34.1612 33.8316 34.1041C33.8326 33.584 33.6273 33.0848 33.2606 32.7161L36.4146 26.3301L37.2266 35.2891C37.0571 35.3614 36.8996 35.4592 36.7596 35.5791L33.8226 34.2751ZM27.1006 25.8861L30.4546 32.7121C30.1884 32.9806 30.0045 33.3195 29.9246 33.6891L21.5246 34.7041C21.4577 34.5658 21.3751 34.4356 21.2786 34.3161L26.4266 25.9651C26.4586 25.9651 26.4936 25.9711 26.5266 25.9711C26.72 25.9712 26.9124 25.9429 27.0976 25.8871M8.77561 33.4031L12.8756 25.9271C13.0784 25.8833 13.2731 25.8081 13.4526 25.7041L18.3856 34.1451C18.2676 34.2593 18.1645 34.388 18.0786 34.5281L8.77561 33.4031ZM37.6546 25.7971C37.9001 25.6859 38.1204 25.526 38.3023 25.3271C38.4841 25.1282 38.6237 24.8945 38.7126 24.6401H40.4196C40.5488 25.0094 40.7835 25.3328 41.0946 25.5701L38.3876 33.9041L37.6546 25.7971ZM32.1076 15.8431L35.4466 22.6061C35.0809 22.9757 34.8757 23.4746 34.8757 23.9946C34.8757 24.5145 35.0809 25.0135 35.4466 25.3831L32.1076 32.1451C32.0251 32.1336 31.9419 32.1279 31.8586 32.1281C31.7763 32.1279 31.6941 32.1336 31.6126 32.1451L28.1606 25.1161C28.3893 24.7866 28.5118 24.3951 28.5118 23.9941C28.5118 23.593 28.3893 23.2016 28.1606 22.8721L31.6076 15.8431C31.6892 15.8531 31.7714 15.8588 31.8536 15.8601C31.9369 15.8603 32.0201 15.8546 32.1026 15.8431M20.1836 14.3431L25.2216 22.5111C25.0119 22.6961 24.844 22.9237 24.729 23.1786C24.614 23.4335 24.5545 23.7099 24.5545 23.9896C24.5545 24.2692 24.614 24.5457 24.729 24.8006C24.844 25.0555 25.0119 25.283 25.2216 25.4681L20.1836 33.6361C20.0419 33.6036 19.897 33.5871 19.7516 33.5871C19.6846 33.5871 19.6216 33.5871 19.5576 33.5961L14.3256 24.6421C14.4002 24.4328 14.4384 24.2123 14.4386 23.9901C14.4357 23.7681 14.3976 23.548 14.3256 23.3381L19.5576 14.3841C19.6216 14.3901 19.6856 14.3931 19.7516 14.3931C19.897 14.393 20.0419 14.3766 20.1836 14.3441M37.6536 22.1881L38.3866 14.0811L41.0936 22.4151C40.7825 22.6524 40.5478 22.9757 40.4186 23.3451H38.7126C38.6242 23.0904 38.4848 22.8565 38.3029 22.6575C38.121 22.4586 37.8994 22.2988 37.6536 22.1881ZM12.8716 22.0581L9.20761 15.3851C9.44382 15.1299 9.60628 14.8154 9.67761 14.4751L18.0696 13.4601C18.1563 13.5995 18.2593 13.7281 18.3766 13.8431L13.4456 22.2841C13.2661 22.1801 13.0714 22.1048 12.8686 22.0611M21.2776 13.6721C21.3739 13.5524 21.4564 13.4222 21.5236 13.2841L29.9236 14.2991C30.0035 14.6686 30.1874 15.0076 30.4536 15.2761L27.0996 22.1021C26.9145 22.0458 26.7221 22.0175 26.5286 22.0181C26.4936 22.0181 26.4586 22.0181 26.4286 22.0241L21.2776 13.6721ZM33.2546 15.2721C33.6212 14.9032 33.8265 14.4041 33.8256 13.8841C33.8255 13.827 33.8225 13.7699 33.8166 13.7131L36.7526 12.4131C36.8949 12.5298 37.0519 12.6273 37.2196 12.7031L36.4076 21.6631L33.2546 15.2721ZM3.92961 11.2251C3.94812 11.116 3.95782 11.0057 3.95861 10.8951C3.95965 10.7019 3.93133 10.5097 3.87461 10.3251L11.4466 4.82507L7.97261 12.0951C7.89862 12.086 7.82415 12.0813 7.74961 12.0811C7.2587 12.0818 6.78552 12.2646 6.42161 12.5941L3.92961 11.2251ZM28.4666 4.74707L32.0836 7.37607L36.1416 10.3251C36.0846 10.5121 36.0552 10.7065 36.0546 10.9021C36.0549 10.9796 36.0595 11.0571 36.0686 11.1341L33.2546 12.4931C33.0711 12.3086 32.8529 12.1623 32.6127 12.0624C32.3724 11.9625 32.1148 11.9111 31.8546 11.9111C31.7936 11.9111 31.7356 11.9111 31.6776 11.9191L28.4666 4.74707ZM13.6516 4.70907L18.1516 11.2571C17.9499 11.5319 17.8231 11.8545 17.7836 12.1931L9.51961 13.1931C9.42231 12.9915 9.29106 12.8082 9.13161 12.6511L12.6186 5.35107L12.8966 4.76807C12.9706 4.77715 13.0451 4.78183 13.1196 4.78207C13.298 4.78196 13.4757 4.75774 13.6476 4.71007M23.4956 12.2251L21.6836 12.0051C21.6303 11.7544 21.5284 11.5165 21.3836 11.3051L26.2966 4.69007C26.491 4.75003 26.6932 4.78037 26.8966 4.78007C26.9546 4.78007 27.0156 4.78007 27.0736 4.77107L30.5086 12.4411C30.3337 12.6068 30.1895 12.8021 30.0826 13.0181L23.4956 12.2251ZM13.1236 0.825073C12.8639 0.824942 12.6068 0.875989 12.3669 0.975296C12.127 1.0746 11.909 1.22022 11.7254 1.40383C11.5418 1.58744 11.3961 1.80543 11.2968 2.04535C11.1975 2.28527 11.1465 2.54241 11.1466 2.80207C11.1457 2.99774 11.1751 3.19237 11.2336 3.37907L3.11461 9.27907C2.80928 9.06622 2.45006 8.94388 2.07828 8.92613C1.70651 8.90838 1.33727 8.99594 1.01305 9.17874C0.688827 9.36153 0.422794 9.63214 0.245551 9.95943C0.0683091 10.2867 -0.012942 10.6574 0.0111449 11.0288C0.0352319 11.4002 0.163679 11.7573 0.381709 12.059C0.599739 12.3606 0.898495 12.5946 1.24361 12.734C1.58873 12.8734 1.96618 12.9125 2.33255 12.8469C2.69892 12.7813 3.03933 12.6136 3.31461 12.3631L5.80761 13.7251C5.78897 13.8351 5.77927 13.9465 5.77861 14.0581C5.77861 14.5824 5.9869 15.0853 6.35766 15.456C6.72842 15.8268 7.23128 16.0351 7.75561 16.0351C7.8672 16.0342 7.97854 16.0245 8.08861 16.0061L11.5176 22.2611C11.2068 22.4315 10.9476 22.6823 10.767 22.9873C10.5864 23.2922 10.4911 23.6401 10.4911 23.9946C10.4911 24.349 10.5864 24.6969 10.767 25.0019C10.9476 25.3068 11.2068 25.5577 11.5176 25.7281L7.27761 33.4611L3.30761 35.6351C3.03233 35.3846 2.69192 35.2169 2.32555 35.1512C1.95918 35.0856 1.58173 35.1248 1.23661 35.2641C0.891495 35.4035 0.592739 35.6375 0.374709 35.9392C0.156678 36.2408 0.0282319 36.5979 0.00414494 36.9693C-0.019942 37.3407 0.0613091 37.7114 0.238551 38.0387C0.415794 38.366 0.681827 38.6366 1.00605 38.8194C1.33027 39.0022 1.69951 39.0898 2.07128 39.072C2.44306 39.0543 2.80228 38.9319 3.10761 38.7191L11.2266 44.6191C11.1696 44.8061 11.1402 45.0005 11.1396 45.1961C11.1396 45.5871 11.2556 45.9693 11.4728 46.2944C11.69 46.6196 11.9988 46.8729 12.36 47.0226C12.7213 47.1722 13.1188 47.2114 13.5023 47.1351C13.8858 47.0588 14.2381 46.8705 14.5146 46.594C14.791 46.3175 14.9793 45.9653 15.0556 45.5818C15.1319 45.1983 15.0928 44.8008 14.9431 44.4395C14.7935 44.0783 14.5401 43.7695 14.215 43.5523C13.8899 43.335 13.5076 43.2191 13.1166 43.2191C13.0421 43.2194 12.9676 43.2241 12.8936 43.2331L8.83661 34.7251L17.7876 35.8091C17.843 36.2907 18.0735 36.7353 18.4353 37.0581C18.797 37.3809 19.2648 37.5596 19.7496 37.5601C19.9533 37.5608 20.1557 37.5295 20.3496 37.4671L25.2626 44.0821C25.0879 44.3376 24.9756 44.6307 24.9348 44.9376C24.8941 45.2445 24.9259 45.5567 25.0279 45.849C25.1298 46.1413 25.299 46.4056 25.5218 46.6206C25.7446 46.8356 26.0148 46.9952 26.3106 47.0867C26.6063 47.1781 26.9195 47.1989 27.2247 47.1472C27.53 47.0955 27.8188 46.9728 28.068 46.7891C28.3171 46.6053 28.5197 46.3656 28.6593 46.0893C28.7988 45.8129 28.8716 45.5077 28.8716 45.1981C28.8725 45.0024 28.8431 44.8078 28.7846 44.6211L32.8426 41.6731L36.9036 38.7221C37.2343 38.9551 37.6291 39.0799 38.0336 39.0791C38.4486 39.0805 38.8535 38.9511 39.1907 38.7092C39.528 38.4674 39.7804 38.1254 39.9121 37.7318C40.0439 37.3383 40.0483 36.9133 39.9247 36.5171C39.8011 36.121 39.5558 35.7738 39.2236 35.5251L42.3236 25.9801C42.8487 25.9801 43.3524 25.7715 43.7237 25.4001C44.095 25.0288 44.3036 24.5252 44.3036 24.0001C44.3036 23.4749 44.095 22.9713 43.7237 22.6C43.3524 22.2287 42.8487 22.0201 42.3236 22.0201L39.2236 12.4751C39.6331 12.1619 39.9039 11.7011 39.9782 11.1909C40.0525 10.6808 39.9245 10.1619 39.6213 9.7449C39.3182 9.32794 38.8641 9.04602 38.3559 8.95935C37.8477 8.87269 37.3258 8.98815 36.9016 9.28107L28.7856 3.38107C28.8427 3.19403 28.872 2.99963 28.8726 2.80407C28.8718 2.49469 28.7984 2.18982 28.6583 1.91397C28.5182 1.63813 28.3153 1.39902 28.066 1.21587C27.8166 1.03272 27.5277 0.910648 27.2226 0.859474C26.9175 0.808299 26.6046 0.829449 26.3092 0.921222C26.0137 1.013 25.7439 1.17283 25.5215 1.38787C25.2991 1.60291 25.1302 1.86715 25.0285 2.15934C24.9268 2.45153 24.8951 2.76351 24.9359 3.07019C24.9767 3.37687 25.089 3.66968 25.2636 3.92507L20.3506 10.5351C20.1567 10.4727 19.9543 10.4413 19.7506 10.4421C19.5684 10.443 19.3871 10.4683 19.2116 10.5171L14.7076 3.97607C14.9253 3.68235 15.0572 3.33397 15.0886 2.96973C15.12 2.60548 15.0497 2.23967 14.8855 1.91302C14.7213 1.58637 14.4696 1.31171 14.1586 1.11963C13.8475 0.927545 13.4892 0.825575 13.1236 0.825073Z" fill="#4C4C4C"/>
<path d="M52.3666 35.6795H53.1206V32.6795H52.3666V35.6795ZM52.7466 32.3225C53.0826 32.3225 53.1866 32.2105 53.1866 31.8995C53.1866 31.5885 53.0806 31.4765 52.7466 31.4765C52.4126 31.4765 52.3036 31.5885 52.3036 31.8995C52.3036 32.2105 52.4036 32.3225 52.7466 32.3225Z" fill="#4C4C4C"/>
<path d="M54.6367 33.7205C54.6359 33.5869 54.6423 33.4534 54.6557 33.3205C54.8039 33.2648 54.9614 33.238 55.1197 33.2415C55.6387 33.2415 55.7197 33.4185 55.7197 33.8415V35.6775H56.4677V33.7705C56.4677 33.1235 56.3507 32.6395 55.2677 32.6395C54.8021 32.6228 54.3394 32.7185 53.9187 32.9185C53.9027 33.1125 53.8937 33.2845 53.8937 33.4895V35.6795H54.6417V33.7185L54.6367 33.7205Z" fill="#4C4C4C"/>
<path d="M57.4557 31.9503V32.6773H56.9667V33.2453H57.4557V34.8713C57.4557 35.4393 57.7237 35.7153 58.3557 35.7153C58.5281 35.7117 58.7 35.6943 58.8697 35.6633L58.8127 35.1333C58.7277 35.1383 58.6437 35.1413 58.5587 35.1413C58.3077 35.1413 58.2037 35.0413 58.2037 34.7943V33.2433H58.8037V32.6753H58.2037V31.8253L57.4557 31.9503Z" fill="#4C4C4C"/>
<path d="M59.9806 34.0234C59.9806 33.5534 60.0546 33.2124 60.6066 33.2124C61.0326 33.2124 61.1776 33.4254 61.1776 33.8184C61.1783 33.8584 61.1763 33.8985 61.1716 33.9384C60.9966 33.9634 60.6936 33.9874 60.4966 33.9984L59.9806 34.0234ZM60.5436 35.7164C60.9831 35.7162 61.4217 35.6777 61.8546 35.6014L61.7916 35.0364C61.4339 35.0854 61.0735 35.1118 60.7126 35.1154C60.2786 35.1154 60.0296 35.0004 60.0026 34.5304L60.4976 34.5054C60.9096 34.4834 61.5736 34.4184 61.9146 34.3584C61.9206 34.2764 61.9256 34.1974 61.9256 34.1174C61.9256 33.2104 61.7016 32.6374 60.6066 32.6374C59.6066 32.6374 59.2626 33.0884 59.2626 34.1754C59.2626 35.0634 59.5276 35.7164 60.5436 35.7164Z" fill="#4C4C4C"/>
<path d="M62.5337 34.9144C62.5127 35.2457 62.6201 35.5723 62.8337 35.8264L63.4917 35.5184C63.3477 35.3301 63.2741 35.0973 63.2837 34.8604V31.5164H62.5357L62.5337 34.9144Z" fill="#4C4C4C"/>
<path d="M64.0235 34.9144C64.0024 35.2457 64.1098 35.5723 64.3235 35.8264L64.9815 35.5184C64.8374 35.3301 64.7638 35.0973 64.7735 34.8604V31.5164H64.0235V34.9144Z" fill="#4C4C4C"/>
<path d="M65.5486 35.6795H66.3027V32.6795H65.5486V35.6795ZM65.9286 32.3225C66.2646 32.3225 66.3687 32.2105 66.3687 31.8995C66.3687 31.5885 66.2626 31.4765 65.9286 31.4765C65.5946 31.4765 65.4886 31.5885 65.4886 31.8995C65.4886 32.2105 65.5886 32.3225 65.9286 32.3225Z" fill="#4C4C4C"/>
<path d="M68.3515 33.2234C68.5098 33.2199 68.6673 33.2467 68.8155 33.3024C68.8288 33.4353 68.8351 33.5688 68.8345 33.7024V34.9974C68.6978 35.0386 68.5562 35.0608 68.4135 35.0634C67.7135 35.0634 67.6815 34.6704 67.6815 34.1454C67.6815 33.6734 67.7335 33.2194 68.3505 33.2194M67.1075 36.6934C67.5167 36.7689 67.9314 36.8111 68.3475 36.8194C69.0195 36.8194 69.5795 36.6314 69.5795 35.8474V33.4844C69.5795 33.2844 69.5715 33.1074 69.5545 32.9164C69.184 32.7248 68.7715 32.6288 68.3545 32.6374C67.3765 32.6374 66.9335 32.9924 66.9335 34.1454C66.9335 35.2984 67.3565 35.6454 68.2665 35.6454C68.4584 35.6435 68.6497 35.6224 68.8375 35.5824V35.6724C68.8375 36.0414 68.6625 36.2274 68.2605 36.2274C67.8967 36.2204 67.5337 36.191 67.1735 36.1394L67.1075 36.6934Z" fill="#4C4C4C"/>
<path d="M70.9467 34.0234C70.9467 33.5534 71.0207 33.2124 71.5727 33.2124C71.9987 33.2124 72.1437 33.4254 72.1437 33.8184C72.1447 33.8584 72.143 33.8985 72.1387 33.9384C71.9637 33.9634 71.6607 33.9874 71.4637 33.9984L70.9467 34.0234ZM71.5097 35.7164C71.9492 35.7162 72.3878 35.6777 72.8207 35.6014L72.7577 35.0364C72.4 35.0854 72.0396 35.1118 71.6787 35.1154C71.2447 35.1154 70.9957 35.0004 70.9687 34.5304L71.4627 34.5054C71.8757 34.4834 72.5387 34.4184 72.8797 34.3584C72.8847 34.2764 72.8907 34.1974 72.8907 34.1174C72.8907 33.2104 72.6667 32.6374 71.5717 32.6374C70.5667 32.6374 70.2277 33.0884 70.2277 34.1754C70.2277 35.0634 70.4937 35.7164 71.5097 35.7164Z" fill="#4C4C4C"/>
<path d="M74.2895 33.7205C74.2888 33.5869 74.2951 33.4534 74.3085 33.3205C74.4567 33.2648 74.6142 33.238 74.7725 33.2415C75.2915 33.2415 75.3725 33.4185 75.3725 33.8415V35.6775H76.1205V33.7705C76.1205 33.1235 76.0035 32.6395 74.9205 32.6395C74.455 32.6228 73.9922 32.7185 73.5715 32.9185C73.5555 33.1125 73.5465 33.2845 73.5465 33.4895V35.6795H74.2945V33.7185L74.2895 33.7205Z" fill="#4C4C4C"/>
<path d="M78.8485 35.0394C78.6719 35.0802 78.4917 35.104 78.3105 35.1104C77.5565 35.1104 77.5265 34.8234 77.5265 34.1514C77.5265 33.4414 77.6025 33.2334 78.3055 33.2334C78.4893 33.2385 78.6721 33.2613 78.8515 33.3014L78.9115 32.7524C78.6524 32.6729 78.3825 32.6341 78.1115 32.6374C77.0055 32.6374 76.7755 33.1674 76.7755 34.1504C76.7755 34.9504 76.9315 35.7154 77.9365 35.7154C78.268 35.7178 78.5985 35.6792 78.9205 35.6004L78.8485 35.0394Z" fill="#4C4C4C"/>
<path d="M80.0836 34.0234C80.0836 33.5534 80.1576 33.2124 80.7096 33.2124C81.1356 33.2124 81.2806 33.4254 81.2806 33.8184C81.2813 33.8584 81.2793 33.8985 81.2746 33.9384C81.0996 33.9634 80.7966 33.9874 80.6006 33.9984L80.0836 34.0234ZM80.6466 35.7164C81.0861 35.7162 81.5248 35.6777 81.9576 35.6014L81.8946 35.0364C81.5369 35.0854 81.1766 35.1118 80.8156 35.1154C80.3816 35.1154 80.1326 35.0004 80.1056 34.5304L80.6006 34.5054C81.0126 34.4834 81.6766 34.4184 82.0176 34.3584C82.0226 34.2764 82.0286 34.1974 82.0286 34.1174C82.0286 33.2104 81.8046 32.6374 80.7096 32.6374C79.7046 32.6374 79.3656 33.0884 79.3656 34.1754C79.3656 35.0634 79.6306 35.7164 80.6466 35.7164Z" fill="#4C4C4C"/>
<path d="M85.1116 32.4124C85.1116 32.1504 85.2486 32.0324 85.5046 32.0324H85.7366L85.7906 31.5084C85.6384 31.4882 85.4852 31.4772 85.3316 31.4754C85.2028 31.457 85.0715 31.4684 84.9477 31.5086C84.824 31.5489 84.7111 31.6169 84.6177 31.7076C84.5243 31.7982 84.453 31.9091 84.4091 32.0316C84.3652 32.1541 84.35 32.2851 84.3646 32.4144V32.6764H83.8646V33.2444H84.3596V35.6784H85.1076V33.2454H85.7246V32.6774H85.1076L85.1116 32.4124Z" fill="#4C4C4C"/>
<path d="M87.4796 35.1164C87.0076 35.1164 86.8866 34.9304 86.8866 34.1764C86.8866 33.4224 87.0096 33.2374 87.4796 33.2374C87.9496 33.2374 88.0796 33.4474 88.0796 34.1764C88.0796 34.9054 87.9536 35.1164 87.4796 35.1164ZM87.4796 35.7164C88.4686 35.7164 88.8266 35.2844 88.8266 34.1754C88.8266 33.0664 88.4686 32.6354 87.4796 32.6354C86.4906 32.6354 86.1356 33.0564 86.1356 34.1754C86.1356 35.2944 86.4906 35.7164 87.4796 35.7164Z" fill="#4C4C4C"/>
<path d="M90.2216 35.6784V33.7334C90.2209 33.5999 90.2272 33.4664 90.2406 33.3335C90.3991 33.2684 90.5693 33.2368 90.7406 33.2404C90.8128 33.2396 90.8849 33.2432 90.9566 33.2514L91.0166 32.6514C90.9166 32.6454 90.8166 32.6404 90.7106 32.6404C90.2936 32.6319 89.8811 32.7278 89.5106 32.9194C89.4925 33.1082 89.4841 33.2978 89.4856 33.4874V35.6805L90.2216 35.6784Z" fill="#4C4C4C"/>
<path d="M93.1886 31.9503V32.6773H92.6996V33.2453H93.1886V34.8713C93.1886 35.4393 93.4566 35.7153 94.0886 35.7153C94.261 35.7117 94.4329 35.6943 94.6026 35.6633L94.5456 35.1333C94.4606 35.1383 94.3766 35.1413 94.2916 35.1413C94.0406 35.1413 93.9366 35.0413 93.9366 34.7943V33.2433H94.5366V32.6753H93.9366V31.8253L93.1886 31.9503Z" fill="#4C4C4C"/>
<path d="M96.3375 35.1164C95.8655 35.1164 95.7445 34.9304 95.7445 34.1764C95.7445 33.4224 95.8675 33.2374 96.3375 33.2374C96.8075 33.2374 96.9375 33.4474 96.9375 34.1764C96.9375 34.9054 96.8145 35.1164 96.3375 35.1164ZM96.3375 35.7164C97.3265 35.7164 97.6845 35.2844 97.6845 34.1754C97.6845 33.0664 97.3265 32.6354 96.3375 32.6354C95.3485 32.6354 94.9935 33.0564 94.9935 34.1754C94.9935 35.2944 95.3485 35.7164 96.3375 35.7164Z" fill="#4C4C4C"/>
<path d="M99.0936 33.7204C99.0928 33.5868 99.0992 33.4533 99.1126 33.3204C99.2333 33.2686 99.3632 33.2417 99.4946 33.2414C99.9046 33.2414 99.9946 33.4574 99.9946 33.8414V35.6824H100.743V33.7734C100.745 33.6283 100.731 33.4835 100.702 33.3414C100.836 33.2779 100.982 33.2438 101.131 33.2414C101.552 33.2414 101.645 33.4494 101.645 33.8414V35.6824H102.393V33.7734C102.393 33.1584 102.251 32.6424 101.293 32.6424C100.98 32.645 100.67 32.7032 100.378 32.8144C100.158 32.6877 99.9065 32.628 99.6536 32.6424C99.2133 32.6344 98.7772 32.73 98.3806 32.9214C98.3636 33.1124 98.3556 33.2874 98.3556 33.4894V35.6794H99.1036V33.7234L99.0936 33.7204Z" fill="#4C4C4C"/>
<path d="M104.391 35.1164C103.919 35.1164 103.798 34.9304 103.798 34.1764C103.798 33.4224 103.921 33.2374 104.391 33.2374C104.861 33.2374 104.991 33.4474 104.991 34.1764C104.991 34.9054 104.868 35.1164 104.391 35.1164ZM104.391 35.7164C105.38 35.7164 105.738 35.2844 105.738 34.1754C105.738 33.0664 105.38 32.6354 104.391 32.6354C103.402 32.6354 103.047 33.0564 103.047 34.1754C103.047 35.2944 103.402 35.7164 104.391 35.7164Z" fill="#4C4C4C"/>
<path d="M107.134 35.6784V33.7334C107.134 33.5999 107.14 33.4664 107.153 33.3335C107.312 33.2682 107.482 33.2365 107.653 33.2404C107.726 33.2396 107.798 33.2432 107.869 33.2514L107.929 32.6514C107.829 32.6454 107.729 32.6404 107.623 32.6404C107.206 32.6319 106.794 32.7278 106.423 32.9194C106.405 33.1082 106.397 33.2978 106.398 33.4874V35.6805L107.134 35.6784Z" fill="#4C4C4C"/>
<path d="M109.162 35.6784V33.7334C109.161 33.5999 109.167 33.4664 109.181 33.3335C109.339 33.2684 109.509 33.2368 109.681 33.2404C109.753 33.2396 109.825 33.2432 109.897 33.2514L109.957 32.6514C109.857 32.6454 109.757 32.6404 109.651 32.6404C109.234 32.6319 108.821 32.7278 108.451 32.9194C108.432 33.1082 108.424 33.2978 108.426 33.4874V35.6805L109.162 35.6784Z" fill="#4C4C4C"/>
<path d="M111.678 35.1164C111.205 35.1164 111.085 34.9304 111.085 34.1764C111.085 33.4224 111.208 33.2374 111.678 33.2374C112.148 33.2374 112.278 33.4474 112.278 34.1764C112.278 34.9054 112.152 35.1164 111.678 35.1164ZM111.678 35.7164C112.667 35.7164 113.024 35.2844 113.024 34.1754C113.024 33.0664 112.666 32.6354 111.678 32.6354C110.69 32.6354 110.334 33.0564 110.334 34.1754C110.334 35.2944 110.689 35.7164 111.678 35.7164Z" fill="#4C4C4C"/>
<path d="M113.392 32.6774L114.045 35.2174C114.135 35.5644 114.307 35.7174 114.572 35.7174C114.837 35.7174 115.014 35.5564 115.115 35.2234L115.522 33.8414L115.943 35.2264C116.043 35.5624 116.222 35.7214 116.481 35.7214C116.74 35.7214 116.915 35.5624 117 35.2264L117.653 32.6804H116.916L116.449 34.9064L116.028 33.3964C115.935 33.0664 115.774 32.9134 115.534 32.9134C115.294 32.9134 115.134 33.0634 115.039 33.3964L114.616 34.9124L114.152 32.6804H113.393L113.392 32.6774Z" fill="#4C4C4C"/>
<path d="M56.2516 12.2645L52.3036 12.2694L52.3256 29.7854L56.2736 29.7805L56.2516 12.2645Z" fill="#4C4C4C"/>
<path d="M71.3756 29.7595H67.5266L67.5176 22.8155C67.5176 20.8761 66.8246 19.9095 65.4386 19.9155C65.1235 19.9088 64.8112 19.9748 64.5257 20.1083C64.2403 20.2418 63.9894 20.4393 63.7926 20.6855C63.3466 21.2376 63.1166 21.9332 63.1456 22.6425L63.1546 29.7764H59.2966L59.2816 17.2685H63.1396V19.2485H63.1886C63.5819 18.5335 64.1653 17.9413 64.8742 17.5373C65.5832 17.1333 66.3901 16.9333 67.2056 16.9595C69.9736 16.9561 71.3603 18.6725 71.3656 22.1085L71.3756 29.7665V29.7595Z" fill="#4C4C4C"/>
<path d="M81.6535 29.4114C81.1865 29.5364 80.2025 29.8344 79.6835 29.9114C79.1482 29.9915 78.6077 30.0313 78.0665 30.0304C77.5877 30.0373 77.1121 29.9506 76.6665 29.7754C76.2571 29.6131 75.8897 29.3605 75.5915 29.0364C75.2849 28.7 75.0501 28.3046 74.9015 27.8744C74.7324 27.3781 74.6482 26.8568 74.6525 26.3324L74.6435 19.5324H72.6205V16.9234H74.6405V14.3904L78.4755 12.7964V16.9244H81.6525V19.5304H78.4785L78.4875 25.4764C78.4552 25.9109 78.5925 26.341 78.8705 26.6764C78.9999 26.8133 79.1573 26.9207 79.3319 26.9912C79.5065 27.0618 79.6943 27.0939 79.8825 27.0854C80.0958 27.0858 80.3086 27.0644 80.5175 27.0214C80.7295 26.9834 81.4405 26.7434 81.6525 26.7004L81.6535 29.4114Z" fill="#4C4C4C"/>
<path d="M91.0606 22.2095C91.0606 20.4208 90.334 19.5271 88.8806 19.5285C88.5736 19.5304 88.2708 19.6005 87.9941 19.7337C87.7174 19.8668 87.4737 20.0597 87.2806 20.2985C86.8169 20.8397 86.5294 21.5095 86.4566 22.2185L91.0656 22.2125L91.0606 22.2095ZM94.6406 24.5765L86.4806 24.5865C86.614 26.4005 87.759 27.3061 89.9156 27.3035C91.1929 27.3296 92.4509 26.9892 93.5406 26.3225V29.1085C92.1371 29.7817 90.59 30.101 89.0346 30.0385C88.1772 30.1257 87.3112 30.0215 86.4989 29.7334C85.6867 29.4453 84.9485 28.9805 84.3377 28.3725C83.7269 27.7646 83.2586 27.0286 82.9667 26.2177C82.6747 25.4068 82.5664 24.5413 82.6496 23.6835C82.6002 22.7813 82.7342 21.8785 83.0436 21.0296C83.353 20.1806 83.8313 19.4033 84.4496 18.7445C85.0249 18.1518 85.7161 17.684 86.4802 17.3704C87.2443 17.0567 88.0649 16.9039 88.8906 16.9215C89.6707 16.8733 90.452 16.9925 91.1823 17.271C91.9125 17.5495 92.5748 17.981 93.1246 18.5365C94.1726 19.7592 94.7097 21.3384 94.6246 22.9465V24.5755L94.6406 24.5765Z" fill="#4C4C4C"/>
<path d="M140.845 22.1484C140.845 20.3598 140.118 19.4661 138.665 19.4674C138.358 19.4694 138.055 19.5395 137.778 19.6726C137.501 19.8058 137.258 19.9987 137.065 20.2374C136.601 20.7786 136.313 21.4485 136.241 22.1574L140.85 22.1514L140.845 22.1484ZM144.425 24.5154L136.265 24.5254C136.398 26.3394 137.543 27.2451 139.7 27.2424C140.977 27.2686 142.235 26.9282 143.325 26.2614V29.0474C141.921 29.7207 140.374 30.04 138.819 29.9774C137.961 30.0646 137.095 29.9604 136.283 29.6723C135.471 29.3842 134.732 28.9194 134.122 28.3115C133.511 27.7035 133.043 26.9675 132.751 26.1567C132.459 25.3458 132.35 24.4802 132.434 23.6224C132.384 22.7203 132.518 21.8174 132.828 20.9685C133.137 20.1196 133.615 19.3423 134.234 18.6834C134.809 18.0908 135.5 17.623 136.264 17.3093C137.028 16.9957 137.849 16.8429 138.675 16.8604C139.455 16.8123 140.236 16.9314 140.966 17.21C141.696 17.4885 142.359 17.92 142.909 18.4754C143.956 19.6982 144.494 21.2773 144.409 22.8854V24.5144L144.425 24.5154Z" fill="#4C4C4C"/>
<path d="M100.054 25.4834C100.022 25.919 100.158 26.3502 100.435 26.6884C100.564 26.8251 100.722 26.9323 100.896 27.0027C101.071 27.0731 101.259 27.1051 101.447 27.0964C101.66 27.0965 101.873 27.0747 102.082 27.0314C102.293 26.9934 102.508 26.9524 102.719 26.9094V29.6224C102.234 29.7497 101.742 29.8499 101.247 29.9224C100.711 30.0021 100.171 30.0415 99.6296 30.0404C99.1509 30.0478 98.6754 29.9619 98.2296 29.7874C97.8204 29.6234 97.4528 29.3703 97.1536 29.0464C96.8485 28.7096 96.6146 28.3147 96.4656 27.8854C96.2955 27.3894 96.2116 26.8678 96.2176 26.3434L96.1986 11.2124H100.034L100.054 25.4834Z" fill="#4C4C4C"/>
<path d="M107.566 25.4744C107.535 25.91 107.671 26.3412 107.948 26.6794C108.077 26.8164 108.235 26.9238 108.41 26.9942C108.586 27.0646 108.774 27.0964 108.962 27.0874C109.176 27.0875 109.389 27.0657 109.598 27.0224C109.809 26.9844 110.023 26.9434 110.234 26.9004V29.6134C109.75 29.7407 109.258 29.8409 108.763 29.9134C108.227 29.9931 107.686 30.0325 107.145 30.0314C106.666 30.0389 106.19 29.9529 105.745 29.7784C105.335 29.6144 104.968 29.3612 104.669 29.0374C104.363 28.7007 104.129 28.3058 103.98 27.8764C103.81 27.3803 103.727 26.8588 103.733 26.3344L103.714 11.2034H107.548L107.566 25.4824V25.4744Z" fill="#4C4C4C"/>
<path d="M114.992 25.4654C114.96 25.901 115.096 26.3321 115.373 26.6704C115.503 26.8074 115.66 26.9148 115.836 26.9852C116.011 27.0556 116.199 27.0874 116.388 27.0784C116.601 27.0784 116.813 27.0566 117.022 27.0134C117.234 26.9754 117.448 26.9344 117.66 26.8914V29.6044C117.175 29.7317 116.684 29.8318 116.188 29.9044C115.652 29.984 115.112 30.0234 114.571 30.0224C114.092 30.0298 113.616 29.9438 113.171 29.7694C112.761 29.6054 112.394 29.3523 112.095 29.0284C111.79 28.6916 111.556 28.2967 111.407 27.8674C111.237 27.3713 111.153 26.8498 111.159 26.3254L111.148 17.2034H114.983L114.993 25.4734L114.992 25.4654ZM113.117 15.2204C112.528 15.2442 111.954 15.0367 111.517 14.6424C111.318 14.4636 111.159 14.2445 111.052 13.9996C110.945 13.7547 110.891 13.4897 110.895 13.2224C110.887 12.955 110.938 12.6892 111.045 12.4441C111.152 12.1989 111.312 11.9805 111.514 11.8044C111.972 11.4474 112.536 11.2536 113.117 11.2536C113.697 11.2536 114.262 11.4474 114.72 11.8044C114.921 11.9802 115.081 12.1985 115.188 12.4435C115.295 12.6885 115.346 12.9541 115.339 13.2214C115.347 13.4923 115.297 13.7619 115.191 14.0113C115.084 14.2607 114.925 14.4839 114.724 14.6654C114.278 15.0478 113.705 15.2475 113.119 15.2244" fill="#4C4C4C"/>
<path d="M127.406 23.6865V22.6955C127.423 21.9592 127.175 21.2412 126.706 20.6735C126.484 20.405 126.205 20.1905 125.888 20.0463C125.572 19.9021 125.226 19.8321 124.879 19.8415C124.486 19.8272 124.096 19.9112 123.744 20.0858C123.392 20.2604 123.089 20.5202 122.863 20.8415C122.327 21.6822 122.072 22.6707 122.133 23.6655C122.088 24.544 122.334 25.4129 122.833 26.1375C123.053 26.432 123.342 26.6685 123.674 26.8267C124.006 26.9848 124.371 27.0599 124.739 27.0455C125.111 27.0549 125.48 26.976 125.816 26.8152C126.152 26.6545 126.445 26.4164 126.672 26.1205C127.192 25.4186 127.453 24.5573 127.408 23.6845M131.225 28.2565C131.287 29.2471 131.141 30.2398 130.795 31.1701C130.449 32.1005 129.911 32.9476 129.217 33.6565C127.593 35.0293 125.5 35.7168 123.379 35.5735C122.006 35.6363 120.637 35.3913 119.372 34.8565V31.6075C120.547 32.3242 121.895 32.7111 123.272 32.7275C124.376 32.794 125.462 32.4196 126.292 31.6865C126.655 31.3202 126.939 30.8819 127.123 30.3997C127.308 29.9175 127.39 29.4021 127.364 28.8865V27.8865H127.318C126.919 28.5573 126.345 29.1073 125.659 29.4782C124.972 29.849 124.197 30.0268 123.418 29.9925C122.698 30.0236 121.98 29.8883 121.321 29.5971C120.662 29.3059 120.079 28.8666 119.618 28.3135C118.624 27.0243 118.123 25.4222 118.207 23.7965C118.107 21.9831 118.659 20.1938 119.763 18.7515C120.258 18.1443 120.887 17.6595 121.601 17.3348C122.314 17.0102 123.093 16.8543 123.877 16.8795C124.552 16.8406 125.226 16.9828 125.828 17.2913C126.43 17.5999 126.939 18.0635 127.302 18.6345H127.348V17.1795H131.209L131.225 28.2565Z" fill="#4C4C4C"/>
<path d="M157.892 29.6525H154.043L154.034 22.7014C154.034 20.7621 153.341 19.7955 151.955 19.8015C151.64 19.7949 151.327 19.8609 151.042 19.9944C150.756 20.1279 150.506 20.3254 150.309 20.5715C149.862 21.1239 149.632 21.8199 149.662 22.5295L149.671 29.6624H145.813L145.798 17.1545H149.656V19.1345H149.705C150.098 18.4194 150.682 17.8272 151.391 17.4232C152.1 17.0192 152.907 16.8193 153.723 16.8455C156.491 16.8421 157.877 18.5585 157.883 21.9945L157.893 29.6525H157.892Z" fill="#4C4C4C"/>
<path d="M169.547 29.1894C168.374 29.7596 167.075 30.0205 165.774 29.9474C164.918 29.9857 164.064 29.8511 163.262 29.5518C162.46 29.2525 161.726 28.7946 161.105 28.2054C160.511 27.6194 160.045 26.9164 159.736 26.1409C159.428 25.3654 159.284 24.5344 159.314 23.7004C159.263 22.7765 159.406 21.8522 159.733 20.9867C160.06 20.1212 160.564 19.3336 161.214 18.6744C161.902 18.0447 162.709 17.5576 163.586 17.2411C164.464 16.9247 165.396 16.7851 166.328 16.8304C167.426 16.7541 168.526 16.9531 169.528 17.4094V20.6874C168.753 20.0949 167.803 19.7782 166.828 19.7874C166.345 19.7624 165.863 19.836 165.41 20.0037C164.957 20.1713 164.543 20.4295 164.194 20.7624C163.859 21.1207 163.601 21.5431 163.435 22.0041C163.268 22.4651 163.197 22.9551 163.226 23.4444C163.201 23.9181 163.27 24.3921 163.431 24.8385C163.591 25.285 163.839 25.6949 164.16 26.0444C164.497 26.3692 164.898 26.6207 165.337 26.7834C165.776 26.946 166.244 27.0161 166.712 26.9894C167.721 26.9728 168.704 26.6568 169.534 26.0814V29.1814L169.547 29.1894Z" fill="#4C4C4C"/>
<path d="M174.649 25.3914C174.617 25.827 174.753 26.2582 175.03 26.5964C175.159 26.7331 175.316 26.8404 175.491 26.9108C175.666 26.9812 175.853 27.0131 176.042 27.0044C176.255 27.0045 176.468 26.9827 176.677 26.9394C176.889 26.9014 177.103 26.8604 177.315 26.8174V29.5304C176.83 29.6577 176.338 29.7578 175.843 29.8304C175.307 29.91 174.767 29.9495 174.226 29.9484C173.747 29.9558 173.271 29.8698 172.826 29.6954C172.416 29.5314 172.049 29.2783 171.75 28.9544C171.444 28.6176 171.21 28.2227 171.062 27.7934C170.891 27.2973 170.808 26.7758 170.814 26.2514L170.803 17.1294H174.638L174.649 25.3914ZM172.767 15.1474C172.178 15.1711 171.604 14.9636 171.167 14.5694C170.968 14.3906 170.809 14.1715 170.702 13.9266C170.595 13.6817 170.541 13.4167 170.545 13.1494C170.537 12.882 170.588 12.6163 170.695 12.3711C170.802 12.126 170.962 11.9075 171.164 11.7314C171.622 11.3744 172.186 11.1806 172.767 11.1806C173.347 11.1806 173.911 11.3744 174.37 11.7314C174.572 11.9067 174.732 12.1249 174.839 12.37C174.946 12.6151 174.997 12.881 174.989 13.1484C174.997 13.4193 174.947 13.6889 174.84 13.9383C174.734 14.1877 174.575 14.4109 174.374 14.5924C173.929 14.9752 173.355 15.175 172.769 15.1514" fill="#4C4C4C"/>
<path d="M185.715 24.5364V23.6924L183.443 23.9924C182.188 24.1564 181.562 24.7231 181.564 25.6924C181.557 25.8945 181.595 26.0954 181.674 26.2815C181.753 26.4676 181.871 26.6344 182.021 26.7704C182.367 27.0631 182.812 27.2129 183.265 27.1894C183.597 27.2001 183.927 27.1383 184.233 27.0082C184.538 26.8782 184.812 26.6831 185.035 26.4364C185.498 25.9147 185.743 25.234 185.717 24.5364M189.352 29.6134H185.7V27.8134H185.651C185.286 28.475 184.744 29.0222 184.086 29.3941C183.429 29.766 182.681 29.9478 181.926 29.9194C181.404 29.9492 180.881 29.8737 180.389 29.6974C179.897 29.5211 179.445 29.2477 179.061 28.8934C178.707 28.5304 178.431 28.0986 178.251 27.6247C178.071 27.1508 177.99 26.6449 178.014 26.1384C178.014 23.7124 179.449 22.3098 182.319 21.9304L185.719 21.4764C185.719 20.1084 184.976 19.4254 183.491 19.4274C181.973 19.4367 180.493 19.9022 179.243 20.7634V17.8564C179.943 17.5223 180.682 17.2751 181.443 17.1204C182.277 16.9199 183.131 16.8129 183.99 16.8014C187.555 16.7968 189.34 18.5734 189.345 22.1314L189.354 29.6074L189.352 29.6134Z" fill="#4C4C4C"/>
</svg>
