<svg width="37" height="30" viewBox="0 0 37 30" fill="none" xmlns="http://www.w3.org/2000/svg">
<g clip-path="url(#clip0_463_194)">
<path d="M25.784 28.5965C26.2734 29.0372 27.1455 29.1232 27.8114 28.741C28.2171 28.5079 28.5781 28.1966 28.9575 27.9188C29.2137 27.731 29.4561 27.5228 29.7248 27.354C30.8794 26.6303 32.1355 26.6808 33.2269 27.5037C33.6201 27.7999 33.9817 28.1381 34.3624 28.4514C34.7234 28.7482 35.1133 28.9722 35.6001 29.0096C35.9557 29.0372 36.1441 29.2704 36.1072 29.5679C36.0717 29.8581 35.8326 30.025 35.4769 29.998C34.8518 29.9507 34.3163 29.6874 33.8368 29.3012C33.5128 29.0398 33.2032 28.7607 32.8837 28.4941C31.8635 27.641 30.9749 27.6219 29.9105 28.4324C29.6319 28.6445 29.3658 28.8743 29.0905 29.0911C27.5578 30.2955 26.0824 30.2653 24.5886 29.007C24.2619 28.7318 23.9371 28.4494 23.5828 28.2143C22.8181 27.7067 22.0303 27.7099 21.2762 28.2366C20.8368 28.544 20.439 28.9085 20.0102 29.2316C18.768 30.1675 17.4375 30.1799 16.1807 29.2631C15.8093 28.9919 15.4615 28.6891 15.1005 28.4035C14.1843 27.6778 13.4493 27.6627 12.4982 28.3535C12.099 28.6432 11.7157 28.9545 11.3106 29.2356C10.0348 30.1222 8.72997 30.1195 7.42846 29.3039C6.99308 29.0313 6.59459 28.701 6.18161 28.393C6.00575 28.2623 5.82989 28.1303 5.66785 27.9831C5.17715 27.5366 4.67393 27.4985 4.12132 27.8794C3.43565 28.3516 2.7434 28.8152 2.03665 29.2559C1.69547 29.4687 1.32332 29.6381 0.949863 29.7918C0.785856 29.8595 0.581671 29.8687 0.401856 29.8489C0.158152 29.822 0.0119287 29.6572 7.27895e-05 29.4037C-0.0117831 29.1535 0.107435 28.9466 0.347846 28.9144C0.978185 28.829 1.45308 28.4514 1.95564 28.1257C2.39694 27.84 2.82244 27.5293 3.2644 27.2437C3.43433 27.134 3.47978 27.0447 3.36978 26.8529C3.09842 26.3781 2.84878 25.8901 2.59849 25.4041C2.35479 24.9319 2.53328 24.6022 3.06087 24.5674C6.02814 24.3724 8.99607 24.1845 11.9633 23.9928C16.9896 23.6683 22.0152 23.3426 27.0414 23.0188C29.1327 22.8842 31.2246 22.7528 33.3158 22.6162C33.5971 22.5979 33.8559 22.6202 33.9738 22.9203C34.097 23.2349 33.9113 23.428 33.6827 23.6125C31.355 25.4961 28.8422 27.088 26.1397 28.3818C26.031 28.4337 25.9237 28.4882 25.817 28.544C25.8005 28.5525 25.7939 28.5788 25.7834 28.5972L25.784 28.5965ZM3.78408 25.5072C3.99354 25.9013 4.16742 26.2362 4.35251 26.5652C4.37556 26.606 4.46777 26.6388 4.51849 26.6283C5.27068 26.4713 5.82923 26.8581 6.37657 27.2771C6.83764 27.6298 7.28026 28.0094 7.75976 28.3345C8.95128 29.1436 9.83323 29.1095 10.9892 28.2504C11.3758 27.9628 11.7493 27.6535 12.1537 27.3934C13.3511 26.6217 14.4663 26.6723 15.5978 27.5333C15.9904 27.8314 16.3599 28.1598 16.7544 28.4553C17.6305 29.1108 18.5131 29.1108 19.3897 28.454C19.7751 28.1651 20.134 27.8406 20.5187 27.551C21.7563 26.6197 23.1066 26.5974 24.3409 27.5398C24.6999 27.8144 24.9785 27.8465 25.3684 27.6567C27.5611 26.5895 29.6866 25.4113 31.6297 23.9284C31.6889 23.8831 31.735 23.8207 31.8437 23.7071C22.4538 24.31 13.1542 24.907 3.78474 25.5085L3.78408 25.5072Z" fill="white"/>
<path d="M23.3905 21.5852C23.3865 22.0659 23.0598 22.2563 22.6054 22.0738C21.1859 21.5037 19.7204 21.0965 18.22 20.8004C13.7371 19.9144 9.56386 20.7012 5.67974 23.0806C5.3998 23.252 5.13436 23.2362 4.96772 23.03C4.78066 22.7982 4.80108 22.5637 4.99934 22.349C6.40756 20.822 7.25855 18.9969 7.80194 17.0241C8.5291 14.3853 8.757 11.7084 8.24061 9.00066C7.81973 6.794 7.03724 4.70622 6.06242 2.68871C5.76273 2.06809 5.43142 1.46323 5.10341 0.856396C4.97299 0.614714 4.9091 0.382884 5.11131 0.160248C5.3155 -0.0643575 5.55657 -0.0177288 5.80554 0.0945742C8.67796 1.3877 11.2784 3.10245 13.6509 5.162C17.5027 8.50679 20.385 12.5418 22.2431 17.292C22.7503 18.5884 23.1409 19.9216 23.3543 21.3014C23.3707 21.4092 23.3819 21.5182 23.3905 21.5865V21.5852ZM7.17621 21.1419C9.6047 20.0536 12.072 19.4297 14.6797 19.454C17.2676 19.4783 19.7665 20.0018 22.2826 20.8772C21.3177 16.6616 19.3549 13.039 16.7189 9.75657C13.9808 6.34676 10.6164 3.69746 6.7303 1.67798C6.75994 1.83823 6.82185 1.9722 6.8864 2.10552C7.59776 3.56349 8.19912 5.0648 8.67467 6.61668C10.0157 10.9919 9.71074 15.2778 7.97912 19.4849C7.7565 20.0254 7.46998 20.5396 7.17621 21.1425V21.1419Z" fill="white"/>
<path d="M14.9931 3.63966C15.9778 3.77495 16.7385 4.13945 17.4716 4.5637C19.4331 5.70118 21.0745 7.22942 22.7047 8.78261C25.8017 11.7353 27.9469 15.3021 29.6008 19.1972C29.8617 19.8113 30.1008 20.4352 30.3425 21.0571C30.4492 21.331 30.5954 21.6206 30.3273 21.8813C30.058 22.1427 29.778 21.9818 29.5034 21.8702C29.178 21.7382 28.848 21.6186 28.5246 21.484C27.7019 21.1425 26.8608 21.1419 26.0032 21.3192C25.4111 21.442 25.2774 21.3402 25.1068 20.7629C23.8929 16.6648 22.1929 12.7887 19.7229 9.27977C18.4372 7.45271 16.8063 5.96059 14.9654 4.69505C14.9022 4.6517 14.835 4.61361 14.7731 4.5683C14.5577 4.41199 14.4734 4.18082 14.6005 3.96541C14.696 3.80385 14.9055 3.70862 14.9944 3.63901L14.9931 3.63966ZM29.0746 20.6138C27.0531 15.13 23.8198 10.6018 19.358 7.12237C20.0173 8.05166 20.8011 9.05451 21.4756 10.125C23.418 13.2097 24.8545 16.5289 25.9202 20.0096C25.9947 20.2526 26.0961 20.3045 26.3392 20.2684C27.1203 20.1515 27.8936 20.1883 28.6399 20.4812C28.7604 20.5285 28.8882 20.558 29.0746 20.6145V20.6138Z" fill="white"/>
</g>
<defs>
<clipPath id="clip0_463_194">
<rect width="36.1111" height="30" fill="white"/>
</clipPath>
</defs>
</svg>
